<svg width="745" height="169" viewBox="0 0 745 169" fill="none" xmlns="http://www.w3.org/2000/svg">
<path d="M32.5414 169H0L36.7627 0H69.3425L54.2998 69.29H60.2094L115.929 0H153.766V2.89178L88.146 83.0353V87.3918L129.59 167.535V169H93.5951L57.8302 99.71H47.4691L32.5414 169ZM365.171 2.89178L283 129.5L273.417 169H240.838L249.5 124.5L219.003 0H253.539L272.305 80.6318H276.756L329.636 0H365.171V2.89178ZM416.554 0H449.632L455.274 153.076H459.725L525.997 0H560.074V2.89178L485.628 169H424.958L416.554 0ZM606.584 166.108L642.617 0H745V30.42H668.52L660.308 69.0647H727.156V99.4847H653.477L644.958 138.58H717.869V169H606.584V166.108Z" fill="black"/>
</svg>
