<svg width="701" height="614" viewBox="0 0 701 614" fill="none" xmlns="http://www.w3.org/2000/svg">
    <g filter="url(#filter0_d_12000_5308)">
        <rect width="241.881" height="241.881" rx="11.5985"
            transform="matrix(0.866025 0.5 -0.866025 0.5 352.818 239.445)" fill="#58C6B2"
            fill-opacity="0.25" shape-rendering="crispEdges" />
        <rect x="-3.45663e-08" y="0.579926" width="240.721" height="240.721" rx="11.0186"
            transform="matrix(0.866025 0.5 -0.866025 0.5 353.321 239.735)"
            stroke="url(#paint0_angular_12000_5308)" stroke-width="1.15985"
            shape-rendering="crispEdges" />
    </g>
    <path
        d="M576.085 474.264L556.384 474.922L555.242 463.548L574.944 462.889L576.085 474.264ZM453.155 411.062L472.856 410.403L473.997 421.777L454.296 422.436L453.155 411.062ZM564.056 469.948L461.969 417.462L465.183 415.377L567.271 467.864L564.056 469.948Z"
        fill="#4B0057" />
    <path
        d="M259.793 304.682L240.068 305.03L239.465 293.641L259.19 293.293L259.793 304.682ZM123.856 230.853L143.581 230.505L144.184 241.893L124.459 242.241L123.856 230.853ZM247.973 300.178L132.364 237.39L135.676 235.357L251.285 298.145L247.973 300.178Z"
        fill="#ED5828" />
    <path
        d="M126.453 472.994L146.155 473.653L147.296 462.278L127.594 461.62L126.453 472.994ZM249.383 409.792L229.682 409.133L228.541 420.508L248.242 421.167L249.383 409.792ZM138.482 468.678L240.569 416.192L237.355 414.108L135.267 466.594L138.482 468.678Z"
        fill="#001039" />
    <path
        d="M435.365 298.987L455.075 299.55L456.05 288.17L436.34 287.607L435.365 298.987ZM582.929 221.818L563.219 221.255L562.245 232.635L581.955 233.197L582.929 221.818ZM447.33 294.613L574.209 228.261L570.964 226.192L444.085 292.544L447.33 294.613Z"
        fill="#007DB2" />
    <g filter="url(#filter1_d_12000_5308)">
        <path
            d="M592.259 145.88C589.446 144.256 584.884 144.256 582.071 145.88V172.938C584.884 171.313 589.446 171.313 592.259 172.938L660.518 212.347L592.259 251.757C589.446 253.381 584.884 253.381 582.071 251.757V271.6C584.884 273.225 589.446 273.225 592.259 271.6L678.857 221.603L678.857 195.878L592.259 145.88Z"
            fill="url(#paint1_linear_12000_5308)" />
        <path
            d="M582.071 145.88L495.473 195.878C494.066 196.69 493.363 197.754 493.363 198.819V218.662C493.363 219.726 494.067 220.791 495.473 221.603L582.071 271.6V251.757L513.812 212.347L582.071 172.938V145.88Z"
            fill="url(#paint2_linear_12000_5308)" />
        <path
            d="M678.857 195.878C680.263 196.69 680.967 197.754 680.967 198.818V218.662C680.967 219.726 680.264 220.791 678.857 221.603L678.857 195.878Z"
            fill="url(#paint3_linear_12000_5308)" />
        <path
            d="M582.142 145.841C584.916 144.24 589.413 144.24 592.186 145.841L676.531 194.537C680.628 196.903 680.628 200.739 676.531 203.104L591.616 252.13C589.157 253.549 585.171 253.549 582.713 252.13L497.798 203.104C493.7 200.739 493.7 196.903 497.798 194.537L582.142 145.841Z"
            fill="#007DB3" />
        <path
            d="M584.381 182.721C584.922 182.685 585.465 182.664 586.009 182.644C586.035 182.642 586.064 182.655 586.09 182.653C586.141 182.65 586.196 182.661 586.247 182.658L586.299 182.655C586.639 182.662 587.006 182.668 587.378 182.704C588.73 182.811 589.971 183.015 591.103 183.333C594.747 184.343 597.166 186.413 597.298 189.056C597.504 192.733 592.245 195.428 586.321 195.818C578.086 196.743 565.524 197.415 567.267 205.52C567.581 206.977 567.722 208.111 570.9 211.436C567.438 210.06 564.896 208.398 562.649 206.212C561.72 204.285 560.944 200.859 563.286 198.19C566.842 194.145 579.5 192.336 584.843 191.909C592.211 191.303 591.654 185.722 582.804 186.485C578.185 186.879 567.242 189.222 562.875 193.125C560.419 195.35 559.051 197.216 559.589 201.174C559.304 200.534 559.097 199.883 558.968 199.226C558.38 189.649 571.747 183.083 584.381 182.721Z"
            fill="white" />
        <path
            d="M588.362 214.182C587.822 214.218 587.278 214.239 586.734 214.259C586.708 214.261 586.679 214.248 586.654 214.25C586.602 214.253 586.548 214.241 586.496 214.245L586.445 214.248C586.104 214.24 585.738 214.234 585.365 214.199C584.013 214.092 582.773 213.887 581.64 213.57C577.996 212.56 575.577 210.49 575.445 207.847C575.24 204.17 580.498 201.474 586.422 201.084C594.657 200.159 607.219 199.488 605.476 191.383C605.162 189.926 605.021 188.792 601.844 185.466C605.305 186.843 607.848 188.504 610.094 190.691C611.023 192.618 611.8 196.043 609.458 198.713C605.901 202.758 593.243 204.567 587.9 204.994C580.532 205.599 581.089 211.181 589.94 210.418C594.558 210.024 605.501 207.681 609.869 203.778C612.325 201.553 613.692 199.687 613.155 195.729C613.439 196.369 613.647 197.02 613.775 197.677C614.363 207.254 600.997 213.82 588.362 214.182Z"
            fill="white" />
    </g>
    <g filter="url(#filter2_d_12000_5308)">
        <path
            d="M119.88 151.466C117.067 149.842 112.506 149.842 109.692 151.466V178.524C112.505 176.899 117.067 176.899 119.88 178.524L188.14 217.933L119.88 257.343C117.067 258.967 112.505 258.967 109.692 257.343V277.186C112.506 278.811 117.067 278.811 119.88 277.186L206.478 227.189L206.478 201.464L119.88 151.466Z"
            fill="url(#paint4_linear_12000_5308)" />
        <path
            d="M109.692 151.466L23.0944 201.464C21.6875 202.276 20.9842 203.34 20.9844 204.405V224.248C20.9845 225.312 21.6878 226.377 23.0942 227.189L109.692 277.186V257.343L41.4326 217.933L109.692 178.524V151.466Z"
            fill="url(#paint5_linear_12000_5308)" />
        <path
            d="M206.478 201.464C207.884 202.276 208.588 203.34 208.588 204.404V224.248C208.588 225.312 207.885 226.377 206.478 227.189L206.478 201.464Z"
            fill="url(#paint6_linear_12000_5308)" />
        <path
            d="M109.763 151.427C112.537 149.826 117.034 149.826 119.808 151.427L204.152 200.123C208.25 202.489 208.25 206.324 204.152 208.69L119.237 257.716C116.779 259.135 112.793 259.135 110.334 257.716L25.4191 208.69C21.3216 206.324 21.3216 202.489 25.4191 200.123L109.763 151.427Z"
            fill="#EE5827" />
        <path
            d="M92.725 192.648C103.952 186.166 122.082 186.125 133.22 192.554C144.358 198.984 144.286 209.451 133.059 215.932L113.073 227.47C124.191 221.039 124.184 210.623 113.053 204.197C101.915 197.767 83.8573 197.767 72.7195 204.197L92.725 192.648Z"
            fill="white" />
    </g>
    <g filter="url(#filter3_d_12000_5308)">
        <path
            d="M360.761 91.5801C355.768 88.6973 347.672 88.6973 342.679 91.5801V139.602C347.672 136.72 355.768 136.72 360.761 139.602L481.911 209.548L360.761 279.493C355.768 282.376 347.672 282.376 342.679 279.493L342.663 452.631C347.657 455.514 355.752 455.514 360.745 452.631L514.442 363.894L514.458 180.317L360.761 91.5801Z"
            fill="url(#paint7_linear_12000_5308)" />
        <path
            d="M342.679 91.5801L188.983 180.317C186.486 181.759 183.744 183.766 183.744 185.655L185.222 358.674C185.222 360.563 186.47 362.453 188.966 363.894L342.663 452.631L342.679 279.493L221.53 209.548L342.679 139.602V91.5801Z"
            fill="url(#paint8_linear_12000_5308)" />
        <path
            d="M514.458 180.317C516.955 181.758 519.811 183.766 519.811 185.655L518.187 358.674C518.187 360.563 516.939 362.453 514.442 363.894L514.458 180.317Z"
            fill="url(#paint9_linear_12000_5308)" />
        <rect width="198.353" height="198.353" rx="7.93279"
            transform="matrix(0.866025 0.5 -0.866025 0.5 351.704 86.3633)" fill="#2E2E2E" />
        <g filter="url(#filter4_d_12000_5308)">
            <rect x="349.485" y="313.973" width="2.74964" height="109.986" rx="1.37482"
                fill="#58C6B2" />
        </g>
        <g filter="url(#filter5_d_12000_5308)">
            <rect x="481.397" y="208.568" width="2.81803" height="109.986" rx="1.40902"
                transform="rotate(60 481.397 208.568)" fill="#58C6B2" />
        </g>
        <g filter="url(#filter6_d_12000_5308)">
            <rect width="2.76846" height="109.986" rx="1.38423"
                transform="matrix(-0.5 0.866025 0.866025 0.5 216.443 205.012)" fill="#58C6B2" />
        </g>
        <path d="M298.862 383.987L279.391 372.8L260.227 337.658L270.056 331.447L298.862 383.987Z"
            fill="white" />
        <path d="M244.698 275.596L244.7 311.822L230.897 287L230.896 267.627L244.698 275.596Z"
            fill="white" />
        <path d="M244.683 347.476L244.7 352.766L230.898 344.797L230.897 322.686L244.683 347.476Z"
            fill="white" />
        <path
            d="M299.162 307.154L244.695 341.569L222.507 301.671L222.506 277.839L244.908 318.123L279.549 295.83L299.162 307.154Z"
            fill="#58C6B2" />
        <g filter="url(#filter7_d_12000_5308)">
            <rect width="123.95" height="123.95" rx="7.93279"
                transform="matrix(0.866025 0.5 -0.866025 0.5 351.702 119.971)" fill="#58C6B2" />
        </g>
        <circle cx="396.14" cy="35.7893" r="7.33225" fill="url(#paint10_radial_12000_5308)">
            <animate
                attributeName="cy"
                dur="4s"
                calcMode="spline"
                repeatCount="indefinite"
                values="20; 35; 20"
                keyTimes="0; 0.5; 1"
                keySplines="0.5 0 0.5 1; 0.5 0 0.5 1" />
        </circle>
        <circle cx="343.601" cy="66.4768" r="7.33225" fill="url(#paint11_radial_12000_5308)">
            <animate
                attributeName="cy"
                dur="4s"
                calcMode="spline"
                repeatCount="indefinite"
                values="60; 66; 60"
                keyTimes="0; 0.5; 1"
                keySplines="0.5 0 0.5 1; 0.5 0 0.5 1" />
        </circle>
        <circle cx="309.569" cy="144.118" r="7.91845" fill="url(#paint12_radial_12000_5308)">
            <animate
                attributeName="cy"
                dur="4s"
                calcMode="spline"
                repeatCount="indefinite"
                values="130; 144; 130"
                keyTimes="0; 0.5; 1"
                keySplines="0.5 0 0.5 1; 0.5 0 0.5 1" />
        </circle>
        <circle cx="403.378" cy="117.481" r="7.33225" fill="url(#paint13_radial_12000_5308)">
            <animate
                attributeName="cy"
                dur="4s"
                calcMode="spline"
                repeatCount="indefinite"
                values="110; 117; 110"
                keyTimes="0; 0.5; 1"
                keySplines="0.5 0 0.5 1; 0.5 0 0.5 1" />
        </circle>
        <circle cx="304.515" cy="7.33225" r="7.33225" fill="url(#paint14_radial_12000_5308)">
            <animate
                attributeName="cy"
                dur="4s"
                calcMode="spline"
                repeatCount="indefinite"
                values="7; 10; 7"
                keyTimes="0; 0.5; 1"
                keySplines="0.5 0 0.5 1; 0.5 0 0.5 1" />
        </circle>
        <rect x="248.115" y="15.4043" width="207.007" height="166.569"
            fill="url(#paint15_linear_12000_5308)">
            <animate
                attributeName="fill-opacity"
                dur="4s"
                calcMode="spline"
                repeatCount="indefinite"
                values="0.5; 1; 0.5"
                keyTimes="0; 0.5; 1"
                keySplines="0.5 0 0.5 1; 0.5 0 0.5 1" />
        </rect>
    </g>
    <g filter="url(#filter8_d_12000_5308)">
        <path
            d="M585.558 416.13C582.745 414.506 578.184 414.506 575.37 416.13V443.188C578.184 441.563 582.745 441.563 585.558 443.188L653.818 482.597L585.558 522.007C582.745 523.631 578.184 523.631 575.37 522.007V541.85C578.184 543.475 582.745 543.475 585.558 541.85L672.156 491.853L672.156 466.128L585.558 416.13Z"
            fill="url(#paint16_linear_12000_5308)" />
        <path
            d="M575.37 416.13L488.773 466.128C487.366 466.94 486.662 468.004 486.663 469.069V488.912C486.663 489.976 487.366 491.041 488.772 491.853L575.37 541.85V522.007L507.111 482.597L575.37 443.188V416.13Z"
            fill="url(#paint17_linear_12000_5308)" />
        <path
            d="M672.156 466.128C673.563 466.94 674.266 468.004 674.266 469.068V488.912C674.266 489.976 673.563 491.041 672.156 491.853L672.156 466.128Z"
            fill="url(#paint18_linear_12000_5308)" />
        <path
            d="M575.441 416.091C578.215 414.49 582.712 414.49 585.486 416.091L669.83 464.787C673.927 467.153 673.927 470.989 669.83 473.354L584.915 522.38C582.456 523.799 578.47 523.799 576.012 522.38L491.097 473.354C486.999 470.989 486.999 467.153 491.097 464.787L575.441 416.091Z"
            fill="#4B0057" />
        <g clip-path="url(#clip0_12000_5308)">
            <path
                d="M592.341 478.09C589.548 479.702 586.189 480.779 582.611 481.323C582.603 481.327 582.595 481.332 582.578 481.332C577.943 482.04 572.973 481.856 568.489 480.78C566.298 480.252 564.217 479.515 562.356 478.563C562.373 478.583 562.398 478.597 562.424 478.612C562.34 478.563 562.247 478.51 562.163 478.461C561.878 478.316 561.61 478.161 561.324 477.996L560.737 477.657C560.787 477.686 560.829 477.71 560.887 477.734C560.249 477.347 559.668 476.945 559.137 476.525C557.939 475.588 556.997 474.581 556.303 473.528C556.003 473.081 555.753 472.624 555.56 472.163C555.56 472.163 555.558 472.162 555.552 472.158C555.343 471.697 555.184 471.237 555.082 470.762C555.082 470.762 555.08 470.761 555.074 470.757C554.903 470.129 554.84 469.497 554.859 468.865C554.869 468.55 554.895 468.234 554.938 467.918C554.959 467.76 554.981 467.603 555.019 467.445C555.095 467.13 555.179 466.819 555.281 466.509C555.811 464.952 556.856 463.448 558.41 462.085C558.808 461.729 559.24 461.392 559.706 461.066C560.106 460.776 560.539 460.497 560.998 460.233C561.014 460.213 561.03 460.204 561.055 460.19L561.202 460.105L561.211 460.11C562.203 459.595 563.257 459.665 564.503 460.176C565.85 460.727 567.415 461.791 569.361 463.208C571.096 464.474 573.644 466.115 577.508 467.334C582.015 468.726 585.316 470.301 588.075 472.158C591.012 474.166 592.926 476.046 592.795 477.266C592.777 477.577 592.659 477.868 592.349 478.086L592.341 478.09Z"
                fill="white" />
            <path
                d="M611.379 471.765C612.515 470.644 612.728 468.989 612.08 466.63C611.542 464.74 610.305 463.118 608.693 462.188C608.374 462.004 608.047 461.853 607.696 461.716C606.818 461.38 605.648 461.309 604.45 461.526C603.03 461.774 601.659 462.429 601.225 463.048C601.105 463.253 600.97 463.506 600.876 463.754C600.41 463.684 599.986 463.618 599.62 463.558C599.362 463.513 599.137 463.469 598.912 463.424L598.904 463.419C598.904 463.419 598.854 463.409 598.829 463.404C598.812 463.394 598.803 463.37 598.794 463.356L598.786 463.351C597.601 461.864 595.955 460.478 593.839 459.257C584.26 453.727 568.79 453.692 559.283 459.18C549.777 464.668 549.846 473.594 559.425 479.124C569.004 484.654 584.475 484.699 593.981 479.211C597.412 477.23 599.581 474.805 600.512 472.251C600.57 472.228 600.619 472.209 600.677 472.186C601.45 471.904 602.315 471.637 603.23 471.39C603.526 471.694 603.88 471.965 604.283 472.197C605.375 472.827 606.741 473.115 608.114 473C609.488 472.886 610.771 472.416 611.37 471.76L611.379 471.765ZM591.261 479.56C590.654 479.843 590.037 480.101 589.396 480.346C588.845 480.557 588.294 480.749 587.709 480.922C585.296 481.685 582.679 482.169 580.022 482.384C578.922 482.477 577.812 482.516 576.717 482.508C576.344 482.511 575.971 482.503 575.606 482.491C575.415 482.485 575.224 482.479 575.033 482.463L574.511 482.445C574.386 482.439 574.278 482.433 574.17 482.418C574.129 482.413 574.07 482.408 574.021 482.408C573.647 482.381 573.273 482.345 572.891 482.313C572.7 482.288 572.509 482.272 572.309 482.252C572.218 482.237 572.118 482.226 572.018 482.216C571.694 482.171 571.362 482.13 571.037 482.085L570.838 482.054C570.605 482.024 570.372 481.984 570.139 481.944C570.122 481.934 570.081 481.939 570.056 481.924C569.981 481.919 569.923 481.904 569.864 481.889C569.756 481.874 569.656 481.854 569.548 481.83C569.39 481.805 569.232 481.77 569.082 481.74C568.44 481.606 567.816 481.463 567.199 481.306C567.157 481.3 567.124 481.291 567.099 481.276C567.057 481.271 567.032 481.266 566.999 481.256L566.99 481.251C566.898 481.227 566.807 481.202 566.732 481.178C566.481 481.109 566.231 481.04 565.981 480.962C565.655 480.859 565.321 480.751 564.987 480.643C564.687 480.546 564.394 480.433 564.102 480.321C563.951 480.263 563.792 480.199 563.642 480.141C563.349 480.019 563.065 479.902 562.78 479.776C562.646 479.717 562.512 479.659 562.378 479.591C562.043 479.445 561.716 479.285 561.398 479.12C561.339 479.095 561.289 479.066 561.23 479.032C561.104 478.969 560.97 478.901 560.853 478.824C560.769 478.785 560.693 478.741 560.618 478.698C560.467 478.61 560.315 478.523 560.164 478.436C560.064 478.378 559.963 478.319 559.862 478.252C559.778 478.203 559.711 478.155 559.627 478.106C559.517 478.043 559.416 477.976 559.316 477.908C559.131 477.792 558.954 477.68 558.786 477.555C558.55 477.381 558.305 477.202 558.078 477.023C557.867 476.854 557.656 476.685 557.453 476.511C557.005 476.13 556.599 475.744 556.242 475.34C556.064 475.142 555.894 474.949 555.732 474.752C555.57 474.555 555.425 474.357 555.288 474.155L555.28 474.151C554.57 473.145 554.083 472.098 553.803 471.048C553.648 470.41 553.568 469.778 553.563 469.142L553.555 469.137C553.542 468.94 553.546 468.744 553.567 468.548C553.575 468.534 553.574 468.515 553.574 468.495C553.573 468.457 553.572 468.419 553.588 468.381C553.601 468.209 553.622 468.032 553.651 467.86C553.673 467.702 553.703 467.549 553.732 467.396C553.771 467.248 553.809 467.09 553.855 466.937C553.871 466.899 553.887 466.861 553.894 466.818C553.909 466.741 553.932 466.67 553.956 466.598C553.956 466.598 553.971 466.56 553.987 466.541C554.002 466.465 554.026 466.393 554.057 466.317C554.081 466.264 554.097 466.216 554.12 466.164C554.167 466.04 554.223 465.911 554.27 465.787C554.286 465.758 554.293 465.734 554.309 465.706C554.388 465.534 554.468 465.372 554.555 465.205L554.819 464.733C554.819 464.733 554.851 464.685 554.867 464.657C554.9 464.638 554.899 464.609 554.915 464.59C555.003 464.442 555.099 464.29 555.204 464.133C555.325 463.976 555.437 463.814 555.566 463.652C555.582 463.623 555.607 463.6 555.623 463.571C555.639 463.562 555.647 463.547 555.655 463.533C555.784 463.381 555.914 463.219 556.059 463.067L556.157 462.953C556.286 462.801 556.424 462.653 556.578 462.506L556.7 462.378L556.797 462.292C556.838 462.249 556.878 462.216 556.911 462.178C557.033 462.059 557.171 461.941 557.309 461.822C557.439 461.698 557.586 461.585 557.724 461.466L557.749 461.452C557.895 461.328 558.05 461.21 558.205 461.091C558.385 460.949 558.572 460.812 558.777 460.674C558.981 460.527 559.201 460.381 559.439 460.234C559.692 460.068 559.954 459.908 560.232 459.747C560.552 459.562 560.879 459.383 561.232 459.208C561.412 459.104 561.601 459.015 561.79 458.925C561.962 458.845 562.126 458.77 562.299 458.69C562.504 458.591 562.709 458.501 562.914 458.412C562.964 458.393 563.005 458.379 563.046 458.365C563.383 458.228 563.712 458.097 564.049 457.97C564.123 457.947 564.189 457.918 564.246 457.895C564.444 457.82 564.649 457.749 564.847 457.684C564.946 457.656 565.036 457.623 565.135 457.595C565.201 457.576 565.267 457.548 565.341 457.525L565.563 457.454C565.654 457.431 565.736 457.403 565.827 457.37C566.033 457.309 566.239 457.249 566.445 457.198C566.568 457.155 566.7 457.118 566.824 457.085C566.939 457.058 567.063 457.025 567.187 457.002C567.426 456.941 567.673 456.876 567.92 456.821C568.102 456.774 568.283 456.727 568.473 456.695C568.539 456.677 568.613 456.663 568.68 456.654C568.927 456.608 569.183 456.557 569.439 456.506C569.703 456.46 569.943 456.419 570.199 456.378C570.703 456.29 571.215 456.217 571.736 456.159C571.86 456.136 572.001 456.123 572.133 456.104C572.266 456.096 572.39 456.082 572.522 456.074C573.539 455.961 574.591 455.897 575.652 455.886C575.859 455.882 576.066 455.879 576.282 455.881C576.663 455.864 577.053 455.872 577.451 455.884C577.841 455.892 578.231 455.909 578.612 455.931C579.011 455.953 579.401 455.98 579.783 456.011C580.174 456.047 580.556 456.079 580.946 456.125C581.121 456.15 581.304 456.17 581.495 456.196L581.503 456.201C581.686 456.212 581.861 456.237 582.035 456.262L582.044 456.267C582.119 456.282 582.21 456.297 582.293 456.307C582.817 456.382 583.341 456.468 583.841 456.576C583.966 456.592 584.074 456.616 584.174 456.636C584.257 456.656 584.34 456.666 584.424 456.686C584.582 456.721 584.757 456.755 584.915 456.8C585.015 456.819 585.115 456.839 585.223 456.864L585.232 456.869C585.232 456.869 585.315 456.889 585.357 456.903C585.407 456.913 585.465 456.928 585.515 456.938C585.765 456.997 586.015 457.056 586.265 457.125C588.659 457.769 590.9 458.666 592.881 459.81C595.14 461.114 596.839 462.624 597.984 464.231C598.096 464.39 598.207 464.548 598.293 464.712C598.327 464.75 598.353 464.793 598.379 464.837C598.636 465.241 598.844 465.654 599.027 466.071C599.115 466.283 599.194 466.489 599.265 466.7C599.301 466.834 599.353 466.969 599.398 467.098C599.479 467.391 599.543 467.683 599.591 467.976C599.599 467.98 599.591 467.995 599.591 468.004C599.64 468.316 599.671 468.627 599.686 468.938C599.687 468.967 599.687 468.996 599.697 469.029C599.701 469.221 599.696 469.407 599.684 469.599C599.696 469.757 599.682 469.9 599.66 470.039C599.647 470.201 599.626 470.369 599.596 470.531C599.588 470.536 599.597 470.55 599.597 470.55C599.567 470.713 599.538 470.885 599.5 471.043C599.453 471.205 599.416 471.372 599.361 471.539C599.255 471.979 599.082 472.409 598.883 472.833C598.852 472.9 598.82 472.967 598.797 473.029C597.755 475.084 595.824 477.023 593.015 478.644C592.45 478.97 591.877 479.272 591.269 479.555L591.261 479.56ZM600.963 471.216C601.394 469.338 601.162 467.417 600.268 465.578C600.068 465.131 599.818 464.694 599.527 464.261C599.527 464.261 599.552 464.266 599.56 464.271L599.569 464.276C601 464.535 603.187 464.824 605.96 465.016C606.233 465.382 606.509 465.872 606.78 466.491C606.85 466.664 606.928 466.851 606.999 467.053C607.387 468.118 607.542 469.143 607.524 469.871C605.149 470.05 602.659 470.711 600.963 471.216ZM604.444 463.933C604.61 463.934 604.911 464.032 605.231 464.293C604.708 464.255 604.21 464.204 603.711 464.153C603.882 464.015 604.121 463.916 604.444 463.933ZM607.35 470.611C607.286 470.745 607.172 470.849 607.091 470.896C606.828 471.048 606.646 471.046 606.53 471.046C606.322 471.03 606.038 470.932 605.829 470.811C606.357 470.709 606.845 470.66 607.35 470.611ZM606.472 472.213C606.472 472.213 606.431 472.208 606.422 472.203C605.689 472.035 604.96 471.69 604.351 471.092C604.441 471.069 604.54 471.05 604.631 471.027C604.724 471.109 604.875 471.196 605.018 471.279C605.37 471.482 605.839 471.687 606.42 471.72C606.827 471.756 607.415 471.727 607.963 471.372C608.52 471.05 608.779 470.397 608.716 469.386C608.675 468.663 608.465 467.767 608.198 466.903C607.333 464.495 606.045 463.212 604.47 463.21C603.417 463.208 602.837 463.61 602.547 463.981C602.381 463.961 602.231 463.941 602.081 463.921C602.159 463.672 602.246 463.467 602.334 463.319C602.792 462.648 605.324 461.661 607.029 462.305C607.489 462.476 607.958 462.738 608.38 463.066C608.515 463.153 608.641 463.255 608.76 463.361C608.785 463.375 608.81 463.4 608.827 463.419C608.971 463.549 609.106 463.684 609.242 463.829C609.293 463.886 609.344 463.944 609.387 464.007C610.058 464.753 610.576 465.686 610.88 466.741C611.483 468.904 611.316 470.415 610.335 471.427C609.661 472.088 608.055 472.55 606.472 472.213Z"
                fill="white" />
            <path
                d="M593.633 471.518C593.027 471.868 592.032 471.87 591.419 471.517C590.806 471.163 590.802 470.584 591.408 470.234C592.014 469.884 593.017 469.886 593.63 470.24C594.243 470.594 594.247 471.164 593.633 471.518Z"
                fill="white" />
            <path
                d="M594.317 467.917C592.868 468.753 590.514 468.746 589.061 467.908C587.609 467.069 587.596 465.71 589.045 464.873C590.495 464.036 592.833 464.044 594.293 464.887C595.754 465.73 595.759 467.085 594.317 467.917Z"
                fill="white" />
        </g>
    </g>
    <g filter="url(#filter9_d_12000_5308)">
        <path
            d="M130.471 416.953C127.658 415.328 123.097 415.328 120.284 416.953V444.01C123.097 442.386 127.658 442.386 130.471 444.01L198.731 483.42L130.471 522.829C127.658 524.453 123.097 524.453 120.284 522.829V542.673C123.097 544.297 127.658 544.297 130.471 542.673L217.069 492.675L217.069 466.95L130.471 416.953Z"
            fill="url(#paint19_linear_12000_5308)" />
        <path
            d="M120.284 416.953L33.6857 466.95C32.2788 467.762 31.5755 468.827 31.5757 469.891V489.734C31.5759 490.798 32.2791 491.863 33.6855 492.675L120.284 542.673V522.829L52.0239 483.42L120.284 444.01V416.953Z"
            fill="url(#paint20_linear_12000_5308)" />
        <path
            d="M217.069 466.95C218.476 467.762 219.179 468.826 219.179 469.89V489.734C219.18 490.798 218.476 491.863 217.069 492.675L217.069 466.95Z"
            fill="url(#paint21_linear_12000_5308)" />
        <path
            d="M120.355 416.913C123.128 415.312 127.626 415.312 130.399 416.913L214.744 465.609C218.841 467.975 218.841 471.811 214.744 474.176L129.829 523.202C127.37 524.622 123.384 524.622 120.925 523.202L36.0104 474.176C31.9129 471.811 31.9129 467.975 36.0104 465.609L120.355 416.913Z"
            fill="#001039" />
        <path
            d="M134.924 488.826C134.012 488.701 133.099 488.587 132.194 488.448C127.459 487.728 122.726 487.004 117.99 486.278C111.806 485.333 105.624 484.386 99.4418 483.439C99.0193 483.373 98.6011 483.29 98.1699 483.254C97.7793 483.221 97.6218 483.105 97.5311 482.902C97.2103 482.183 96.8703 481.467 96.5388 480.749C95.5592 478.608 94.584 476.466 93.6023 474.327C92.2068 471.28 90.8071 468.233 89.4053 465.188C88.9302 464.157 88.4573 463.124 87.9652 462.096C87.8575 461.87 87.8435 461.682 88.1798 461.507C88.4496 461.369 88.6684 461.196 88.9255 461.047C97.4754 456.114 106.021 451.183 114.556 446.246C114.899 446.048 115.173 445.996 115.663 446.071C120.271 446.792 124.886 447.488 129.5 448.194C136.482 449.262 143.46 450.332 150.441 451.401C150.959 451.48 151.484 451.551 151.996 451.641C152.105 451.659 152.224 451.743 152.256 451.808C152.835 453.026 153.403 454.244 153.964 455.464C155.446 458.684 156.924 461.904 158.406 465.124C159.57 467.656 160.735 470.184 161.894 472.716C161.962 472.866 161.984 473.025 162.026 473.18L134.924 488.826ZM146.792 480.018C150.961 477.611 155.132 475.203 159.305 472.799C159.476 472.7 159.524 472.619 159.456 472.478C159.091 471.706 158.753 470.93 158.399 470.156C156.634 466.307 154.862 462.46 153.097 458.612C152.228 456.714 151.364 454.818 150.509 452.92C150.442 452.767 150.286 452.712 150.058 452.677C148.27 452.404 146.486 452.128 144.697 451.855C138.321 450.88 131.945 449.908 125.569 448.933C122.404 448.449 119.246 447.959 116.077 447.48C115.955 447.461 115.763 447.504 115.662 447.557C115.401 447.693 115.18 447.852 114.931 447.996C111.169 450.168 107.416 452.342 103.648 454.51C99.2945 457.016 94.9329 459.516 90.5712 462.02C90.4019 462.117 90.3609 462.212 90.4263 462.349C90.8909 463.345 91.3405 464.344 91.7986 465.34C93.3735 468.777 94.9527 472.215 96.5297 475.653C97.467 477.695 98.4087 479.738 99.3204 481.786C99.428 482.031 99.6174 482.145 100.031 482.206C104.069 482.815 108.102 483.432 112.135 484.049C119.092 485.111 126.051 486.168 132.999 487.25C133.761 487.369 134.208 487.312 134.784 486.975C138.758 484.639 142.784 482.335 146.794 480.019L146.792 480.018Z"
            fill="white" />
        <path
            d="M140.867 458.244C142.53 459.228 142.485 460.803 140.767 461.77C139.115 462.701 136.343 462.687 134.729 461.738C133.062 460.756 133.122 459.167 134.866 458.193C136.509 457.274 139.274 457.297 140.869 458.242L140.867 458.244ZM136.388 460.79C137.214 461.272 138.358 461.275 139.196 460.799C139.98 460.354 140.02 459.637 139.288 459.197C138.504 458.728 137.208 458.726 136.383 459.195C135.604 459.638 135.606 460.332 136.39 460.789L136.388 460.79Z"
            fill="white" />
        <path
            d="M123.329 459.069C121.699 460.035 118.941 460.053 117.27 459.111C115.622 458.179 115.59 456.582 117.201 455.628C118.863 454.643 121.629 454.603 123.292 455.538C124.987 456.492 125.002 458.078 123.329 459.069ZM118.885 456.526C118.095 456.997 118.083 457.673 118.862 458.115C119.726 458.607 120.912 458.613 121.739 458.131C122.499 457.687 122.469 456.97 121.668 456.52C120.855 456.06 119.663 456.062 118.885 456.526Z"
            fill="white" />
        <path
            d="M126.575 479.274C124.931 478.318 124.919 476.685 126.641 475.763C128.461 474.788 130.926 474.801 132.668 475.767C134.371 476.71 134.32 478.343 132.64 479.298C130.991 480.235 128.204 480.224 126.573 479.275L126.575 479.274ZM128.265 478.345C129.044 478.859 130.403 478.724 131.082 478.319C131.819 477.879 131.819 477.149 131.059 476.72C130.207 476.238 129.071 476.258 128.192 476.765C127.408 477.217 127.441 477.872 128.265 478.345Z"
            fill="white" />
        <path
            d="M145.576 468.339C147.169 469.251 147.169 470.926 145.496 471.845C143.829 472.76 141.219 472.836 139.454 471.854C137.755 470.908 137.77 469.294 139.449 468.327C141.12 467.362 143.882 467.368 145.576 468.339ZM141.078 470.895C141.904 471.436 143.342 471.24 143.908 470.898C144.67 470.438 144.659 469.678 143.872 469.238C143.088 468.8 141.813 468.823 141.039 469.287C140.257 469.758 140.273 470.45 141.076 470.893L141.078 470.895Z"
            fill="white" />
        <path
            d="M104.394 466.527C102.737 465.57 102.769 463.998 104.47 463.019C106.1 462.078 108.877 462.078 110.501 463.018C112.179 463.986 112.154 465.56 110.45 466.548C108.811 467.499 106.063 467.488 104.396 466.528L104.394 466.527ZM108.877 465.575C109.67 465.11 109.65 464.414 108.826 463.95C108.062 463.519 106.804 463.525 106.043 463.962C105.244 464.423 105.244 465.155 106.045 465.615C106.835 466.066 108.067 466.05 108.875 465.577L108.877 465.575Z"
            fill="white" />
        <path
            d="M121.937 465.665C123.651 464.69 126.415 464.685 128.054 465.656C129.657 466.604 129.621 468.228 127.977 469.164C126.283 470.13 123.5 470.109 121.829 469.119C120.273 468.196 120.322 466.585 121.937 465.665ZM126.366 466.584C125.542 466.116 124.327 466.126 123.517 466.609C122.788 467.044 122.819 467.779 123.549 468.218C124.366 468.709 125.672 468.622 126.383 468.214C127.184 467.751 127.175 467.043 126.366 466.581L126.366 466.584Z"
            fill="white" />
        <path
            d="M109.063 476.618C107.434 475.695 107.449 474.103 109.101 473.14C110.716 472.195 113.51 472.163 115.109 473.071C116.821 474.042 116.845 475.636 115.176 476.622C113.886 477.384 111.073 477.791 109.063 476.618ZM113.553 474.075C112.706 473.529 111.319 473.715 110.728 474.064C109.811 474.603 110.052 475.351 110.755 475.735C111.505 476.143 112.835 476.127 113.553 475.698C114.309 475.246 114.309 474.494 113.551 474.076L113.553 474.075Z"
            fill="white" />
        <path d="M116.537 473.228L114.942 472.307L120.56 469.064L122.154 469.985L116.537 473.228Z"
            fill="white" />
        <path
            d="M129.421 465.814L127.798 464.878L133.392 461.649C133.473 461.695 133.564 461.748 133.658 461.802C134.035 462.012 134.395 462.233 134.795 462.427C135 462.525 134.995 462.584 134.824 462.683C134.078 463.113 133.339 463.55 132.596 463.982C131.542 464.59 130.486 465.2 129.423 465.813L129.421 465.814Z"
            fill="white" />
        <path
            d="M124.757 464.41C124.283 464.48 123.825 464.545 123.368 464.614C123.107 464.654 122.848 464.703 122.592 464.748C122.526 464.604 122.459 464.461 122.393 464.317C121.834 463.098 121.272 461.879 120.711 460.661C120.669 460.573 120.611 460.485 120.546 460.371C120.674 460.353 120.791 460.342 120.903 460.324C121.409 460.243 121.918 460.173 122.412 460.073C122.656 460.023 122.734 460.039 122.8 460.183C123.254 461.187 123.716 462.189 124.181 463.191C124.366 463.593 124.561 463.995 124.759 464.411L124.757 464.41Z"
            fill="white" />
        <path
            d="M137.183 469.966C134.663 469.58 132.147 469.193 129.579 468.8C129.648 468.701 129.741 468.601 129.788 468.495C129.903 468.237 130.002 467.978 130.094 467.716C130.128 467.618 130.107 467.534 130.376 467.575C132.809 467.953 135.246 468.324 137.681 468.698C137.715 468.703 137.747 468.716 137.787 468.73C137.587 469.143 137.386 469.554 137.185 469.967L137.183 469.966Z"
            fill="white" />
        <path
            d="M127.373 474.368C126.893 473.323 126.403 472.253 125.924 471.209C126.475 471.126 126.969 471.051 127.49 470.972C127.528 471.055 127.573 471.144 127.612 471.233C128.037 472.155 128.457 473.078 128.89 473.999C128.947 474.119 128.891 474.152 128.694 474.176C128.264 474.229 127.839 474.298 127.37 474.368L127.373 474.368Z"
            fill="white" />
        <path
            d="M112.186 466.148C112.349 465.749 112.502 465.358 112.673 464.969C112.686 464.94 112.851 464.906 112.925 464.917C115.316 465.28 117.701 465.648 120.089 466.018C120.183 466.032 120.271 466.051 120.3 466.056C120.102 466.478 119.909 466.884 119.715 467.296C117.214 466.913 114.687 466.528 112.184 466.147L112.186 466.148Z"
            fill="white" />
    </g>
    <defs>
        <filter id="filter0_d_12000_5308" x="109.228" y="242.842" width="487.182" height="325.088"
            filterUnits="userSpaceOnUse" color-interpolation-filters="sRGB">
            <feFlood flood-opacity="0" result="BackgroundImageFix" />
            <feColorMatrix in="SourceAlpha" type="matrix"
                values="0 0 0 0 0 0 0 0 0 0 0 0 0 0 0 0 0 0 127 0" result="hardAlpha" />
            <feOffset dy="50" />
            <feGaussianBlur stdDeviation="20" />
            <feComposite in2="hardAlpha" operator="out" />
            <feColorMatrix type="matrix" values="0 0 0 0 0 0 0 0 0 0 0 0 0 0 0 0 0 0 0.15 0" />
            <feBlend mode="normal" in2="BackgroundImageFix" result="effect1_dropShadow_12000_5308" />
            <feBlend mode="normal" in="SourceGraphic" in2="effect1_dropShadow_12000_5308"
                result="shape" />
        </filter>
        <filter id="filter1_d_12000_5308" x="473.363" y="144.641" width="227.604" height="198.178"
            filterUnits="userSpaceOnUse" color-interpolation-filters="sRGB">
            <feFlood flood-opacity="0" result="BackgroundImageFix" />
            <feColorMatrix in="SourceAlpha" type="matrix"
                values="0 0 0 0 0 0 0 0 0 0 0 0 0 0 0 0 0 0 127 0" result="hardAlpha" />
            <feOffset dy="50" />
            <feGaussianBlur stdDeviation="10" />
            <feComposite in2="hardAlpha" operator="out" />
            <feColorMatrix type="matrix" values="0 0 0 0 0 0 0 0 0 0 0 0 0 0 0 0 0 0 0.15 0" />
            <feBlend mode="normal" in2="BackgroundImageFix" result="effect1_dropShadow_12000_5308" />
            <feBlend mode="normal" in="SourceGraphic" in2="effect1_dropShadow_12000_5308"
                result="shape" />
        </filter>
        <filter id="filter2_d_12000_5308" x="0.984375" y="150.227" width="227.604" height="198.178"
            filterUnits="userSpaceOnUse" color-interpolation-filters="sRGB">
            <feFlood flood-opacity="0" result="BackgroundImageFix" />
            <feColorMatrix in="SourceAlpha" type="matrix"
                values="0 0 0 0 0 0 0 0 0 0 0 0 0 0 0 0 0 0 127 0" result="hardAlpha" />
            <feOffset dy="50" />
            <feGaussianBlur stdDeviation="10" />
            <feComposite in2="hardAlpha" operator="out" />
            <feColorMatrix type="matrix" values="0 0 0 0 0 0 0 0 0 0 0 0 0 0 0 0 0 0 0.15 0" />
            <feBlend mode="normal" in2="BackgroundImageFix" result="effect1_dropShadow_12000_5308" />
            <feBlend mode="normal" in="SourceGraphic" in2="effect1_dropShadow_12000_5308"
                result="shape" />
        </filter>
        <filter id="filter3_d_12000_5308" x="125.752" y="0" width="452.052" height="570.778"
            filterUnits="userSpaceOnUse" color-interpolation-filters="sRGB">
            <feFlood flood-opacity="0" result="BackgroundImageFix" />
            <feColorMatrix in="SourceAlpha" type="matrix"
                values="0 0 0 0 0 0 0 0 0 0 0 0 0 0 0 0 0 0 127 0" result="hardAlpha" />
            <feOffset dy="57.9926" />
            <feGaussianBlur stdDeviation="28.9963" />
            <feComposite in2="hardAlpha" operator="out" />
            <feColorMatrix type="matrix" values="0 0 0 0 0 0 0 0 0 0 0 0 0 0 0 0 0 0 0.15 0" />
            <feBlend mode="normal" in2="BackgroundImageFix" result="effect1_dropShadow_12000_5308" />
            <feBlend mode="normal" in="SourceGraphic" in2="effect1_dropShadow_12000_5308"
                result="shape" />
        </filter>
        <filter id="filter4_d_12000_5308" x="325.687" y="290.174" width="50.3463" height="157.583"
            filterUnits="userSpaceOnUse" color-interpolation-filters="sRGB">
            <feFlood flood-opacity="0" result="BackgroundImageFix" />
            <feColorMatrix in="SourceAlpha" type="matrix"
                values="0 0 0 0 0 0 0 0 0 0 0 0 0 0 0 0 0 0 127 0" result="hardAlpha" />
            <feOffset />
            <feGaussianBlur stdDeviation="11.8992" />
            <feComposite in2="hardAlpha" operator="out" />
            <feColorMatrix type="matrix"
                values="0 0 0 0 0.345098 0 0 0 0 0.776471 0 0 0 0 0.698039 0 0 0 1 0" />
            <feBlend mode="normal" in2="BackgroundImageFix" result="effect1_dropShadow_12000_5308" />
            <feBlend mode="normal" in="SourceGraphic" in2="effect1_dropShadow_12000_5308"
                result="shape" />
        </filter>
        <filter id="filter5_d_12000_5308" x="362.864" y="185.286" width="143.225" height="103.999"
            filterUnits="userSpaceOnUse" color-interpolation-filters="sRGB">
            <feFlood flood-opacity="0" result="BackgroundImageFix" />
            <feColorMatrix in="SourceAlpha" type="matrix"
                values="0 0 0 0 0 0 0 0 0 0 0 0 0 0 0 0 0 0 127 0" result="hardAlpha" />
            <feOffset />
            <feGaussianBlur stdDeviation="11.8992" />
            <feComposite in2="hardAlpha" operator="out" />
            <feColorMatrix type="matrix"
                values="0 0 0 0 0.345098 0 0 0 0 0.776471 0 0 0 0 0.698039 0 0 0 1 0" />
            <feBlend mode="normal" in2="BackgroundImageFix" result="effect1_dropShadow_12000_5308" />
            <feBlend mode="normal" in="SourceGraphic" in2="effect1_dropShadow_12000_5308"
                result="shape" />
        </filter>
        <filter id="filter6_d_12000_5308" x="191.767" y="181.719" width="143.218" height="103.976"
            filterUnits="userSpaceOnUse" color-interpolation-filters="sRGB">
            <feFlood flood-opacity="0" result="BackgroundImageFix" />
            <feColorMatrix in="SourceAlpha" type="matrix"
                values="0 0 0 0 0 0 0 0 0 0 0 0 0 0 0 0 0 0 127 0" result="hardAlpha" />
            <feOffset />
            <feGaussianBlur stdDeviation="11.8992" />
            <feComposite in2="hardAlpha" operator="out" />
            <feColorMatrix type="matrix"
                values="0 0 0 0 0.345098 0 0 0 0 0.776471 0 0 0 0 0.698039 0 0 0 1 0" />
            <feBlend mode="normal" in2="BackgroundImageFix" result="effect1_dropShadow_12000_5308" />
            <feBlend mode="normal" in="SourceGraphic" in2="effect1_dropShadow_12000_5308"
                result="shape" />
        </filter>
        <filter id="filter7_d_12000_5308" x="208.719" y="82.631" width="285.967" height="198.631"
            filterUnits="userSpaceOnUse" color-interpolation-filters="sRGB">
            <feFlood flood-opacity="0" result="BackgroundImageFix" />
            <feColorMatrix in="SourceAlpha" type="matrix"
                values="0 0 0 0 0 0 0 0 0 0 0 0 0 0 0 0 0 0 127 0" result="hardAlpha" />
            <feOffset />
            <feGaussianBlur stdDeviation="19.832" />
            <feComposite in2="hardAlpha" operator="out" />
            <feColorMatrix type="matrix"
                values="0 0 0 0 0.345098 0 0 0 0 0.776471 0 0 0 0 0.698039 0 0 0 1 0" />
            <feBlend mode="normal" in2="BackgroundImageFix" result="effect1_dropShadow_12000_5308" />
            <feBlend mode="normal" in="SourceGraphic" in2="effect1_dropShadow_12000_5308"
                result="shape" />
        </filter>
        <filter id="filter8_d_12000_5308" x="466.663" y="414.891" width="227.604" height="198.178"
            filterUnits="userSpaceOnUse" color-interpolation-filters="sRGB">
            <feFlood flood-opacity="0" result="BackgroundImageFix" />
            <feColorMatrix in="SourceAlpha" type="matrix"
                values="0 0 0 0 0 0 0 0 0 0 0 0 0 0 0 0 0 0 127 0" result="hardAlpha" />
            <feOffset dy="50" />
            <feGaussianBlur stdDeviation="10" />
            <feComposite in2="hardAlpha" operator="out" />
            <feColorMatrix type="matrix" values="0 0 0 0 0 0 0 0 0 0 0 0 0 0 0 0 0 0 0.15 0" />
            <feBlend mode="normal" in2="BackgroundImageFix" result="effect1_dropShadow_12000_5308" />
            <feBlend mode="normal" in="SourceGraphic" in2="effect1_dropShadow_12000_5308"
                result="shape" />
        </filter>
        <filter id="filter9_d_12000_5308" x="11.5757" y="415.713" width="227.604" height="198.178"
            filterUnits="userSpaceOnUse" color-interpolation-filters="sRGB">
            <feFlood flood-opacity="0" result="BackgroundImageFix" />
            <feColorMatrix in="SourceAlpha" type="matrix"
                values="0 0 0 0 0 0 0 0 0 0 0 0 0 0 0 0 0 0 127 0" result="hardAlpha" />
            <feOffset dy="50" />
            <feGaussianBlur stdDeviation="10" />
            <feComposite in2="hardAlpha" operator="out" />
            <feColorMatrix type="matrix" values="0 0 0 0 0 0 0 0 0 0 0 0 0 0 0 0 0 0 0.15 0" />
            <feBlend mode="normal" in2="BackgroundImageFix" result="effect1_dropShadow_12000_5308" />
            <feBlend mode="normal" in="SourceGraphic" in2="effect1_dropShadow_12000_5308"
                result="shape" />
        </filter>
        <radialGradient id="paint0_angular_12000_5308" cx="0" cy="0" r="1"
            gradientUnits="userSpaceOnUse"
            gradientTransform="translate(120.94 120.94) rotate(98.6274) scale(119.268 136.957)">
            <stop offset="0.238307" stop-color="#EE5827" />
            <stop offset="0.503232" stop-color="#007DB2" />
            <stop offset="0.738889" stop-color="#9D52A3" />
            <stop offset="0.996928" stop-color="#042654" />
        </radialGradient>
        <linearGradient id="paint1_linear_12000_5308" x1="495.085" y1="217.641" x2="680.957"
            y2="212.347" gradientUnits="userSpaceOnUse">
            <stop stop-color="#25647F" />
            <stop offset="0.45844" stop-color="#004D85" />
            <stop offset="0.504978" />
            <stop offset="1" stop-color="#007CC1" stop-opacity="0.61" />
        </linearGradient>
        <linearGradient id="paint2_linear_12000_5308" x1="495.085" y1="217.641" x2="680.957"
            y2="212.347" gradientUnits="userSpaceOnUse">
            <stop stop-color="#25647F" />
            <stop offset="0.45844" stop-color="#004D85" />
            <stop offset="0.504978" />
            <stop offset="1" stop-color="#007CC1" stop-opacity="0.61" />
        </linearGradient>
        <linearGradient id="paint3_linear_12000_5308" x1="495.085" y1="217.641" x2="680.957"
            y2="212.347" gradientUnits="userSpaceOnUse">
            <stop stop-color="#25647F" />
            <stop offset="0.45844" stop-color="#004D85" />
            <stop offset="0.504978" />
            <stop offset="1" stop-color="#007CC1" stop-opacity="0.61" />
        </linearGradient>
        <linearGradient id="paint4_linear_12000_5308" x1="22.7059" y1="223.227" x2="208.578"
            y2="217.933" gradientUnits="userSpaceOnUse">
            <stop stop-color="#BD3E15" />
            <stop offset="0.45844" stop-color="#B7411A" />
            <stop offset="0.504978" stop-color="#8A3316" />
            <stop offset="1" stop-color="#ED5828" />
        </linearGradient>
        <linearGradient id="paint5_linear_12000_5308" x1="22.7059" y1="223.227" x2="208.578"
            y2="217.933" gradientUnits="userSpaceOnUse">
            <stop stop-color="#BD3E15" />
            <stop offset="0.45844" stop-color="#B7411A" />
            <stop offset="0.504978" stop-color="#8A3316" />
            <stop offset="1" stop-color="#ED5828" />
        </linearGradient>
        <linearGradient id="paint6_linear_12000_5308" x1="22.7059" y1="223.227" x2="208.578"
            y2="217.933" gradientUnits="userSpaceOnUse">
            <stop stop-color="#BD3E15" />
            <stop offset="0.45844" stop-color="#B7411A" />
            <stop offset="0.504978" stop-color="#8A3316" />
            <stop offset="1" stop-color="#ED5828" />
        </linearGradient>
        <linearGradient id="paint7_linear_12000_5308" x1="188.277" y1="218.944" x2="518.17"
            y2="209.548" gradientUnits="userSpaceOnUse">
            <stop stop-color="#1A1A1A" />
            <stop offset="0.45844" stop-color="#343434" />
            <stop offset="0.504978" />
            <stop offset="1" stop-color="#2C2C2C" />
        </linearGradient>
        <linearGradient id="paint8_linear_12000_5308" x1="188.277" y1="218.944" x2="518.17"
            y2="209.548" gradientUnits="userSpaceOnUse">
            <stop stop-color="#1A1A1A" />
            <stop offset="0.45844" stop-color="#343434" />
            <stop offset="0.504978" />
            <stop offset="1" stop-color="#2C2C2C" />
        </linearGradient>
        <linearGradient id="paint9_linear_12000_5308" x1="188.277" y1="218.944" x2="518.17"
            y2="209.548" gradientUnits="userSpaceOnUse">
            <stop stop-color="#1A1A1A" />
            <stop offset="0.45844" stop-color="#343434" />
            <stop offset="0.504978" />
            <stop offset="1" stop-color="#2C2C2C" />
        </linearGradient>
        <radialGradient id="paint10_radial_12000_5308" cx="0" cy="0" r="1"
            gradientUnits="userSpaceOnUse"
            gradientTransform="translate(389.419 37.0113) rotate(42.2737) scale(9.08348)">
            <stop stop-color="#58C6B2" />
            <stop offset="1" stop-color="#2AA891" />
        </radialGradient>
        <radialGradient id="paint11_radial_12000_5308" cx="0" cy="0" r="1"
            gradientUnits="userSpaceOnUse"
            gradientTransform="translate(336.88 67.6988) rotate(42.2737) scale(9.08348)">
            <stop stop-color="#58C6B2" />
            <stop offset="1" stop-color="#2AA891" />
        </radialGradient>
        <radialGradient id="paint12_radial_12000_5308" cx="0" cy="0" r="1"
            gradientUnits="userSpaceOnUse"
            gradientTransform="translate(302.31 145.437) rotate(42.2737) scale(9.80968)">
            <stop stop-color="#58C6B2" />
            <stop offset="1" stop-color="#2AA891" />
        </radialGradient>
        <radialGradient id="paint13_radial_12000_5308" cx="0" cy="0" r="1"
            gradientUnits="userSpaceOnUse"
            gradientTransform="translate(396.657 118.703) rotate(42.2737) scale(9.08348)">
            <stop stop-color="#58C6B2" />
            <stop offset="1" stop-color="#2AA891" />
        </radialGradient>
        <radialGradient id="paint14_radial_12000_5308" cx="0" cy="0" r="1"
            gradientUnits="userSpaceOnUse"
            gradientTransform="translate(297.794 8.55429) rotate(42.2737) scale(9.08348)">
            <stop stop-color="#58C6B2" />
            <stop offset="1" stop-color="#2AA891" />
        </radialGradient>
        <linearGradient id="paint15_linear_12000_5308" x1="351.618" y1="15.4043" x2="351.618"
            y2="181.973" gradientUnits="userSpaceOnUse">
            <stop stop-color="#58C6B2" stop-opacity="0" />
            <stop offset="1" stop-color="#58C6B2" />
        </linearGradient>
        <linearGradient id="paint16_linear_12000_5308" x1="488.384" y1="487.891" x2="674.256"
            y2="482.597" gradientUnits="userSpaceOnUse">
            <stop stop-color="#C458C6" stop-opacity="0.61" />
            <stop offset="0.45844" stop-color="#C458C6" />
            <stop offset="0.504978" />
            <stop offset="1" stop-color="#9C58C6" stop-opacity="0.61" />
        </linearGradient>
        <linearGradient id="paint17_linear_12000_5308" x1="488.384" y1="487.891" x2="674.256"
            y2="482.597" gradientUnits="userSpaceOnUse">
            <stop stop-color="#C458C6" stop-opacity="0.61" />
            <stop offset="0.45844" stop-color="#C458C6" />
            <stop offset="0.504978" />
            <stop offset="1" stop-color="#9C58C6" stop-opacity="0.61" />
        </linearGradient>
        <linearGradient id="paint18_linear_12000_5308" x1="488.384" y1="487.891" x2="674.256"
            y2="482.597" gradientUnits="userSpaceOnUse">
            <stop stop-color="#C458C6" stop-opacity="0.61" />
            <stop offset="0.45844" stop-color="#C458C6" />
            <stop offset="0.504978" />
            <stop offset="1" stop-color="#9C58C6" stop-opacity="0.61" />
        </linearGradient>
        <linearGradient id="paint19_linear_12000_5308" x1="33.2972" y1="488.713" x2="219.169"
            y2="483.42" gradientUnits="userSpaceOnUse">
            <stop stop-color="#00093A" />
            <stop offset="0.45844" stop-color="#00186F" />
            <stop offset="0.504978" stop-color="#001A42" />
            <stop offset="1" stop-color="#002459" stop-opacity="0.9" />
        </linearGradient>
        <linearGradient id="paint20_linear_12000_5308" x1="33.2972" y1="488.713" x2="219.169"
            y2="483.42" gradientUnits="userSpaceOnUse">
            <stop stop-color="#00093A" />
            <stop offset="0.45844" stop-color="#00186F" />
            <stop offset="0.504978" stop-color="#001A42" />
            <stop offset="1" stop-color="#002459" stop-opacity="0.9" />
        </linearGradient>
        <linearGradient id="paint21_linear_12000_5308" x1="33.2972" y1="488.713" x2="219.169"
            y2="483.42" gradientUnits="userSpaceOnUse">
            <stop stop-color="#00093A" />
            <stop offset="0.45844" stop-color="#00186F" />
            <stop offset="0.504978" stop-color="#001A42" />
            <stop offset="1" stop-color="#002459" stop-opacity="0.9" />
        </linearGradient>
        <clipPath id="clip0_12000_5308">
            <rect width="42.7886" height="45.3819" fill="white"
                transform="matrix(0.866044 0.499967 -0.866044 0.499967 581.383 446.422)" />
        </clipPath>
    </defs>
</svg>