<svg width="13" height="13" viewBox="0 0 13 13" fill="none" xmlns="http://www.w3.org/2000/svg">
<path d="M11.5936 0.67768L1.69409 0.677679C1.42504 0.681469 1.17845 0.828504 1.04721 1.0634C0.915973 1.29829 0.920016 1.58536 1.05782 1.81647C1.19562 2.04757 1.44625 2.18761 1.7153 2.18382L9.78339 2.17675L0.428366 11.5318C0.135472 11.8247 0.135472 12.2995 0.428366 12.5924C0.721259 12.8853 1.19613 12.8853 1.48903 12.5924L10.837 3.24448V11.3055C10.8344 11.5051 10.9125 11.6972 11.0537 11.8383C11.1948 11.9795 11.3869 12.0576 11.5865 12.055C11.7863 12.0598 11.9788 11.9803 12.1168 11.8358C12.2583 11.6957 12.3373 11.5046 12.336 11.3055V1.406C12.3358 0.99215 12.0004 0.656723 11.5865 0.656466L11.5936 0.67768Z" fill="white"/>
</svg>
