<svg width="165" height="38" viewBox="0 0 165 38" fill="none" xmlns="http://www.w3.org/2000/svg">
<path d="M43.381 37.9449L32.3179 37.9725L21.4302 26.126L27.0153 20.2773L43.381 37.9449Z" fill="black"/>
<path d="M12.608 0V17.8241L4.76611 9.53204V0H12.608Z" fill="black"/>
<path d="M12.5984 35.371L12.608 37.9692H4.76611V27.0898L12.5984 35.371Z" fill="black"/>
<path d="M43.5533 0.0546875L12.6054 32.4628L0 19.1347V7.40877L12.7273 20.8659L32.4099 0.0546875H43.5533Z" fill="#58C6B2"/>
<path d="M75.3305 0.152344L66.6613 16.2749L57.9338 0.152344H48.542L62.4794 23.7333V37.9732H70.783V23.7333L84.7218 0.152344H75.33H75.3305Z" fill="black"/>
<path d="M119.213 0.152344L109.131 28.8484L99.1661 0.152344H90.0854L104.408 37.9727H113.916L128.239 0.152344H119.213H119.213Z" fill="black"/>
<path d="M142.101 30.469V22.6209H160.464V15.2283H142.101V7.65649H164.557V0.152344H133.743V37.9727H165V30.469H142.101Z" fill="black"/>
</svg>
