<svg width="611" height="418" viewBox="0 0 611 418" fill="none" xmlns="http://www.w3.org/2000/svg">
          <rect width="611" height="418" rx="30" fill="url(#paint0_linear_2715_1984)" fill-opacity="0.25"></rect>
          <path d="M33 64C33 47.4315 46.4315 34 63 34H548C564.569 34 578 47.4315 578 64V121C578 137.569 564.569 151 548 151H63C46.4314 151 33 137.569 33 121V64Z" fill="black" fill-opacity="0.5"></path>
          <path d="M59 89C59 72.4315 72.4315 59 89 59H227.647C244.215 59 257.647 72.4315 257.647 89V100C257.647 116.569 244.215 130 227.647 130H89C72.4315 130 59 116.569 59 100V89Z" fill="black" fill-opacity="0.5"></path>
          <g class="blink" filter="url(#filter0_d_2715_1984)">
          <path d="M288.748 91.3324L318.033 91.3324L312.252 85.8627C311.576 85.1957 311.576 84.1506 312.252 83.4836C312.928 82.8388 314.047 82.8388 314.723 83.4836L323.51 91.8216C324.163 92.4441 324.163 93.5559 323.51 94.1784L314.723 102.516C314.047 103.161 312.928 103.161 312.252 102.516C311.926 102.183 311.739 101.758 311.739 101.338C311.739 100.916 311.926 100.471 312.252 100.16L318.033 94.6676L288.748 94.6676C287.769 94.6676 287 93.9339 287 93C287 92.0884 287.769 91.3324 288.748 91.3324Z" fill="url(#paint1_linear_2715_1984)"></path>
          </g>
          <path d="M123.212 86V96.4375C123.212 98.7812 121.603 100.469 118.931 100.469C116.259 100.469 114.65 98.7812 114.65 96.4375V86H112.712V96.5937C112.712 99.875 115.165 102.281 118.931 102.281C122.697 102.281 125.15 99.875 125.15 96.5937V86H123.212ZM128.769 106.5H130.613V100.156H130.769C131.175 100.812 131.956 102.25 134.269 102.25C137.269 102.25 139.363 99.8437 139.363 96.0313C139.363 92.25 137.269 89.8438 134.238 89.8438C131.894 89.8438 131.175 91.2812 130.769 91.9062H130.55V90H128.769V106.5ZM130.581 96C130.581 93.3125 131.769 91.5 134.019 91.5C136.363 91.5 137.519 93.4687 137.519 96C137.519 98.5625 136.331 100.594 134.019 100.594C131.8 100.594 130.581 98.7187 130.581 96ZM144.019 86H142.175V102H144.019V86ZM152.271 102.25C155.521 102.25 157.708 99.7812 157.708 96.0625C157.708 92.3125 155.521 89.8438 152.271 89.8438C149.021 89.8438 146.833 92.3125 146.833 96.0625C146.833 99.7812 149.021 102.25 152.271 102.25ZM152.271 100.594C149.802 100.594 148.677 98.4687 148.677 96.0625C148.677 93.6562 149.802 91.5 152.271 91.5C154.74 91.5 155.865 93.6562 155.865 96.0625C155.865 98.4687 154.74 100.594 152.271 100.594ZM164.054 102.281C166.148 102.281 167.242 101.156 167.617 100.375H167.71V102H169.554V94.0938C169.554 90.2812 166.648 89.8438 165.117 89.8438C163.304 89.8438 161.242 90.4687 160.304 92.6562L162.054 93.2812C162.46 92.4062 163.421 91.4687 165.179 91.4687C166.874 91.4687 167.71 92.3672 167.71 93.9062V93.9687C167.71 94.8594 166.804 94.7812 164.617 95.0625C162.39 95.3516 159.96 95.8437 159.96 98.5937C159.96 100.937 161.773 102.281 164.054 102.281ZM164.335 100.625C162.867 100.625 161.804 99.9687 161.804 98.6875C161.804 97.2812 163.085 96.8438 164.523 96.6562C165.304 96.5625 167.398 96.3437 167.71 95.9687V97.6562C167.71 99.1562 166.523 100.625 164.335 100.625ZM177.451 102.25C179.763 102.25 180.544 100.812 180.951 100.156H181.169V102H182.951V86H181.107V91.9062H180.951C180.544 91.2812 179.826 89.8438 177.482 89.8438C174.451 89.8438 172.357 92.25 172.357 96.0313C172.357 99.8437 174.451 102.25 177.451 102.25ZM177.701 100.594C175.388 100.594 174.201 98.5625 174.201 96C174.201 93.4687 175.357 91.5 177.701 91.5C179.951 91.5 181.138 93.3125 181.138 96C181.138 98.7187 179.919 100.594 177.701 100.594ZM191.615 102.25C194.052 102.25 195.833 101.031 196.396 99.2188L194.615 98.7187C194.146 99.9687 193.06 100.594 191.615 100.594C189.451 100.594 187.958 99.1953 187.872 96.625H196.583V95.8437C196.583 91.375 193.927 89.8438 191.427 89.8438C188.177 89.8438 186.021 92.4062 186.021 96.0938C186.021 99.7812 188.146 102.25 191.615 102.25ZM187.872 95.0312C187.997 93.1641 189.318 91.5 191.427 91.5C193.427 91.5 194.708 93 194.708 95.0312H187.872ZM199.388 102H201.232V94.4062C201.232 92.7812 202.513 91.5937 204.263 91.5937C204.755 91.5937 205.263 91.6875 205.388 91.7187V89.8438C205.177 89.8281 204.693 89.8125 204.419 89.8125C202.982 89.8125 201.732 90.625 201.294 91.8125H201.169V90H199.388V102Z" fill="white"></path>
          <path d="M357 90C357 73.4315 370.431 60 387 60H525.647C542.215 60 555.647 73.4315 555.647 90V101C555.647 117.569 542.215 131 525.647 131H387C370.431 131 357 117.569 357 101V90Z" fill="black" fill-opacity="0.5"></path>
          <path d="M407.258 87H405.227L411.102 103H413.102L418.977 87H416.945L412.195 100.469H412.008L407.258 87ZM423.633 103.281C425.727 103.281 426.82 102.156 427.195 101.375H427.289V103H429.133V95.0938C429.133 91.2812 426.227 90.8438 424.695 90.8438C422.883 90.8438 420.82 91.4687 419.883 93.6562L421.633 94.2812C422.039 93.4062 423 92.4687 424.758 92.4687C426.453 92.4687 427.289 93.3672 427.289 94.9062V94.9687C427.289 95.8594 426.383 95.7812 424.195 96.0625C421.969 96.3516 419.539 96.8437 419.539 99.5937C419.539 101.937 421.352 103.281 423.633 103.281ZM423.914 101.625C422.445 101.625 421.383 100.969 421.383 99.6875C421.383 98.2812 422.664 97.8438 424.102 97.6562C424.883 97.5625 426.977 97.3437 427.289 96.9687V98.6562C427.289 100.156 426.102 101.625 423.914 101.625ZM434.342 87H432.498V103H434.342V87ZM437.719 103H439.563V91H437.719V103ZM438.656 89C439.375 89 439.969 88.4375 439.969 87.75C439.969 87.0625 439.375 86.5 438.656 86.5C437.938 86.5 437.344 87.0625 437.344 87.75C437.344 88.4375 437.938 89 438.656 89ZM447.471 103.25C449.783 103.25 450.565 101.812 450.971 101.156H451.19V103H452.971V87H451.127V92.9062H450.971C450.565 92.2812 449.846 90.8438 447.502 90.8438C444.471 90.8438 442.377 93.25 442.377 97.0313C442.377 100.844 444.471 103.25 447.471 103.25ZM447.721 101.594C445.408 101.594 444.221 99.5625 444.221 97C444.221 94.4687 445.377 92.5 447.721 92.5C449.971 92.5 451.158 94.3125 451.158 97C451.158 99.7187 449.94 101.594 447.721 101.594ZM460.135 103.281C462.229 103.281 463.322 102.156 463.697 101.375H463.791V103H465.635V95.0938C465.635 91.2812 462.729 90.8438 461.197 90.8438C459.385 90.8438 457.322 91.4687 456.385 93.6562L458.135 94.2812C458.541 93.4062 459.502 92.4687 461.26 92.4687C462.955 92.4687 463.791 93.3672 463.791 94.9062V94.9687C463.791 95.8594 462.885 95.7812 460.697 96.0625C458.471 96.3516 456.041 96.8437 456.041 99.5937C456.041 101.937 457.854 103.281 460.135 103.281ZM460.416 101.625C458.947 101.625 457.885 100.969 457.885 99.6875C457.885 98.2812 459.166 97.8438 460.604 97.6562C461.385 97.5625 463.479 97.3437 463.791 96.9687V98.6562C463.791 100.156 462.604 101.625 460.416 101.625ZM474.219 91H471.656V88.125H469.813V91H468V92.5625H469.813V100.062C469.813 102.156 471.5 103.156 473.063 103.156C473.75 103.156 474.188 103.031 474.438 102.937L474.063 101.281C473.906 101.312 473.656 101.375 473.25 101.375C472.438 101.375 471.656 101.125 471.656 99.5625V92.5625H474.219V91ZM481.738 103.25C484.988 103.25 487.176 100.781 487.176 97.0625C487.176 93.3125 484.988 90.8438 481.738 90.8438C478.488 90.8438 476.301 93.3125 476.301 97.0625C476.301 100.781 478.488 103.25 481.738 103.25ZM481.738 101.594C479.27 101.594 478.145 99.4687 478.145 97.0625C478.145 94.6562 479.27 92.5 481.738 92.5C484.207 92.5 485.332 94.6562 485.332 97.0625C485.332 99.4687 484.207 101.594 481.738 101.594ZM489.99 103H491.834V95.4062C491.834 93.7812 493.115 92.5937 494.865 92.5937C495.357 92.5937 495.865 92.6875 495.99 92.7187V90.8438C495.779 90.8281 495.295 90.8125 495.022 90.8125C493.584 90.8125 492.334 91.625 491.897 92.8125H491.772V91H489.99V103ZM506.676 93.6875C506.098 91.9844 504.801 90.8438 502.426 90.8438C499.895 90.8438 498.02 92.2812 498.02 94.3125C498.02 95.9687 499.004 97.0781 501.207 97.5937L503.207 98.0625C504.418 98.3437 504.988 98.9219 504.988 99.75C504.988 100.781 503.895 101.625 502.176 101.625C500.668 101.625 499.723 100.977 499.395 99.6875L497.645 100.125C498.074 102.164 499.754 103.25 502.207 103.25C504.996 103.25 506.895 101.727 506.895 99.6562C506.895 97.9844 505.848 96.9297 503.707 96.4063L501.926 95.9687C500.504 95.6172 499.863 95.1406 499.863 94.2187C499.863 93.1875 500.957 92.4375 502.426 92.4375C504.035 92.4375 504.699 93.3281 505.02 94.1562L506.676 93.6875Z" fill="white"></path>
          <path d="M428.481 201.182H430.015C429.944 199.207 428.123 197.73 425.591 197.73C423.086 197.73 421.117 199.188 421.117 201.386C421.117 203.151 422.395 204.199 424.441 204.787L426.052 205.247C427.432 205.631 428.66 206.116 428.66 207.42C428.66 208.852 427.279 209.798 425.464 209.798C423.904 209.798 422.523 209.108 422.395 207.625H420.759C420.912 209.773 422.651 211.23 425.464 211.23C428.481 211.23 430.194 209.568 430.194 207.446C430.194 204.991 427.867 204.199 426.512 203.841L425.182 203.483C424.211 203.227 422.651 202.716 422.651 201.31C422.651 200.057 423.802 199.136 425.54 199.136C427.126 199.136 428.327 199.891 428.481 201.182ZM436.865 201.182H434.769V198.83H433.26V201.182H431.777V202.46H433.26V208.597C433.26 210.31 434.641 211.128 435.919 211.128C436.482 211.128 436.84 211.026 437.044 210.949L436.738 209.594C436.61 209.619 436.405 209.67 436.073 209.67C435.408 209.67 434.769 209.466 434.769 208.188V202.46H436.865V201.182ZM443.018 211.205C445.677 211.205 447.467 209.185 447.467 206.142C447.467 203.074 445.677 201.054 443.018 201.054C440.359 201.054 438.569 203.074 438.569 206.142C438.569 209.185 440.359 211.205 443.018 211.205ZM443.018 209.849C440.998 209.849 440.077 208.111 440.077 206.142C440.077 204.173 440.998 202.409 443.018 202.409C445.038 202.409 445.958 204.173 445.958 206.142C445.958 208.111 445.038 209.849 443.018 209.849ZM449.769 211H451.278V204.787C451.278 203.457 452.326 202.486 453.758 202.486C454.161 202.486 454.576 202.562 454.678 202.588V201.054C454.506 201.041 454.11 201.028 453.886 201.028C452.71 201.028 451.687 201.693 451.329 202.665H451.227V201.182H449.769V211ZM460.284 211.205C462.279 211.205 463.736 210.207 464.196 208.724L462.739 208.315C462.355 209.338 461.467 209.849 460.284 209.849C458.514 209.849 457.293 208.705 457.222 206.602H464.35V205.963C464.35 202.307 462.176 201.054 460.131 201.054C457.472 201.054 455.708 203.151 455.708 206.168C455.708 209.185 457.446 211.205 460.284 211.205ZM457.222 205.298C457.325 203.771 458.405 202.409 460.131 202.409C461.767 202.409 462.816 203.636 462.816 205.298H457.222Z" fill="#58C6B2"></path>
          <path d="M125.228 216H126.813V210.886H129.677C129.792 210.886 129.9 210.886 130.009 210.88L132.77 216H134.611L131.652 210.592C133.32 210.023 134.1 208.662 134.1 206.923C134.1 204.609 132.719 202.909 129.651 202.909H125.228V216ZM126.813 209.455V204.315H129.6C131.722 204.315 132.54 205.351 132.54 206.923C132.54 208.496 131.722 209.455 129.626 209.455H126.813ZM140.548 216.205C142.542 216.205 144 215.207 144.46 213.724L143.002 213.315C142.619 214.338 141.73 214.849 140.548 214.849C138.777 214.849 137.556 213.705 137.486 211.602H144.613V210.963C144.613 207.307 142.44 206.054 140.395 206.054C137.735 206.054 135.971 208.151 135.971 211.168C135.971 214.185 137.71 216.205 140.548 216.205ZM137.486 210.298C137.588 208.771 138.669 207.409 140.395 207.409C142.031 207.409 143.079 208.636 143.079 210.298H137.486ZM151.178 206.182H149.081V203.83H147.573V206.182H146.09V207.46H147.573V213.597C147.573 215.31 148.953 216.128 150.232 216.128C150.794 216.128 151.152 216.026 151.357 215.949L151.05 214.594C150.922 214.619 150.718 214.67 150.385 214.67C149.721 214.67 149.081 214.466 149.081 213.188V207.46H151.178V206.182ZM153.447 216H154.956V209.787C154.956 208.457 156.004 207.486 157.436 207.486C157.838 207.486 158.254 207.562 158.356 207.588V206.054C158.184 206.041 157.787 206.028 157.564 206.028C156.387 206.028 155.365 206.693 155.007 207.665H154.904V206.182H153.447V216ZM160.144 216H161.653V206.182H160.144V216ZM160.911 204.545C161.499 204.545 161.985 204.085 161.985 203.523C161.985 202.96 161.499 202.5 160.911 202.5C160.323 202.5 159.838 202.96 159.838 203.523C159.838 204.085 160.323 204.545 160.911 204.545ZM168.532 216.205C170.527 216.205 171.984 215.207 172.444 213.724L170.987 213.315C170.603 214.338 169.715 214.849 168.532 214.849C166.762 214.849 165.541 213.705 165.471 211.602H172.598V210.963C172.598 207.307 170.424 206.054 168.379 206.054C165.72 206.054 163.956 208.151 163.956 211.168C163.956 214.185 165.694 216.205 168.532 216.205ZM165.471 210.298C165.573 208.771 166.653 207.409 168.379 207.409C170.015 207.409 171.064 208.636 171.064 210.298H165.471ZM182.622 206.182H180.986L178.275 214.006H178.173L175.463 206.182H173.827L177.457 216H178.991L182.622 206.182ZM188.378 216.205C190.372 216.205 191.83 215.207 192.29 213.724L190.833 213.315C190.449 214.338 189.561 214.849 188.378 214.849C186.607 214.849 185.387 213.705 185.316 211.602H192.443V210.963C192.443 207.307 190.27 206.054 188.225 206.054C185.566 206.054 183.801 208.151 183.801 211.168C183.801 214.185 185.54 216.205 188.378 216.205ZM185.316 210.298C185.419 208.771 186.499 207.409 188.225 207.409C189.861 207.409 190.909 208.636 190.909 210.298H185.316Z" fill="#58C6B2"></path>
          <path d="M33 297C33 280.431 46.4315 267 63 267H548C564.569 267 578 280.431 578 297V354C578 370.569 564.569 384 548 384H63C46.4314 384 33 370.569 33 354V297Z" fill="black" fill-opacity="0.5"></path>
          <path d="M252.551 337L254.42 331.611H262.375L264.234 337H267.496L260.168 316.636H256.618L249.29 337H252.551ZM255.315 329.026L258.318 320.335H258.477L261.48 329.026H255.315ZM270.198 337H273.171V327.673C273.171 325.675 274.712 324.233 276.82 324.233C277.436 324.233 278.132 324.342 278.371 324.412V321.568C278.073 321.528 277.486 321.499 277.108 321.499C275.319 321.499 273.787 322.513 273.23 324.153H273.071V321.727H270.198V337ZM284.501 337H287.524L290.626 325.973H290.855L293.957 337H296.99L301.474 321.727H298.402L295.429 332.893H295.279L292.297 321.727H289.224L286.221 332.943H286.072L283.079 321.727H280.007L284.501 337ZM310.413 337.308C313.744 337.308 316.1 335.668 316.777 333.182L313.963 332.675C313.426 334.116 312.133 334.852 310.443 334.852C307.897 334.852 306.187 333.202 306.108 330.259H316.966V329.205C316.966 323.686 313.664 321.528 310.204 321.528C305.949 321.528 303.145 324.77 303.145 329.463C303.145 334.206 305.909 337.308 310.413 337.308ZM306.118 328.031C306.237 325.864 307.808 323.984 310.224 323.984C312.531 323.984 314.042 325.695 314.052 328.031H306.118ZM324.709 337.338C327.234 337.338 328.656 336.055 329.223 334.912H329.342V337H332.246V326.858C332.246 322.413 328.746 321.528 326.32 321.528C323.555 321.528 321.01 322.642 320.016 325.426L322.81 326.062C323.247 324.979 324.361 323.935 326.359 323.935C328.278 323.935 329.263 324.939 329.263 326.669V326.739C329.263 327.822 328.149 327.803 325.405 328.121C322.511 328.459 319.548 329.214 319.548 332.685C319.548 335.688 321.805 337.338 324.709 337.338ZM325.355 334.952C323.675 334.952 322.462 334.196 322.462 332.724C322.462 331.134 323.874 330.567 325.594 330.338C326.558 330.209 328.845 329.95 329.273 329.523V331.491C329.273 333.301 327.831 334.952 325.355 334.952ZM348.724 321.727H345.532L341.674 333.48H341.515L337.647 321.727H334.456L340.004 337H343.186L348.724 321.727ZM357.554 337.308C360.885 337.308 363.241 335.668 363.917 333.182L361.103 332.675C360.566 334.116 359.274 334.852 357.583 334.852C355.038 334.852 353.328 333.202 353.248 330.259H364.106V329.205C364.106 323.686 360.805 321.528 357.345 321.528C353.089 321.528 350.285 324.77 350.285 329.463C350.285 334.206 353.049 337.308 357.554 337.308ZM353.258 328.031C353.377 325.864 354.949 323.984 357.365 323.984C359.672 323.984 361.183 325.695 361.193 328.031H353.258Z" fill="white"></path>
          <g class="blink" filter="url(#filter1_d_2715_1984)">
          <path d="M372.501 185.504L372.501 227.452L380.706 219.172C381.707 218.203 383.274 218.203 384.275 219.172C385.242 220.14 385.242 221.743 384.275 222.711L371.768 235.299C370.834 236.234 369.166 236.234 368.232 235.299L355.725 222.711C354.758 221.743 354.758 220.14 355.725 219.172C356.226 218.704 356.863 218.437 357.493 218.437C358.127 218.437 358.794 218.704 359.261 219.172L367.499 227.452L367.499 185.504C367.499 184.102 368.599 183 370 183C371.367 183 372.501 184.102 372.501 185.504Z" fill="url(#paint2_linear_2715_1984)"></path>
          </g>
          <g class="blink" filter="url(#filter2_d_2715_1984)">
          <path d="M242.499 233.496L242.499 191.548L234.294 199.828C233.293 200.797 231.726 200.797 230.725 199.828C229.758 198.86 229.758 197.257 230.725 196.289L243.232 183.701C244.166 182.766 245.834 182.766 246.768 183.701L259.275 196.289C260.242 197.257 260.242 198.86 259.275 199.828C258.774 200.296 258.137 200.563 257.507 200.563C256.873 200.563 256.206 200.296 255.739 199.828L247.501 191.548L247.501 233.496C247.501 234.898 246.401 236 245 236C243.633 236 242.499 234.898 242.499 233.496Z" fill="url(#paint3_linear_2715_1984)"></path>
          </g>
          <defs>
          <filter id="filter0_d_2715_1984" x="279" y="75" width="57" height="40" filterUnits="userSpaceOnUse" color-interpolation-filters="sRGB">
          <feFlood flood-opacity="0" result="BackgroundImageFix"></feFlood>
          <feColorMatrix in="SourceAlpha" type="matrix" values="0 0 0 0 0 0 0 0 0 0 0 0 0 0 0 0 0 0 127 0" result="hardAlpha"></feColorMatrix>
          <feOffset dx="2" dy="2"></feOffset>
          <feGaussianBlur stdDeviation="5"></feGaussianBlur>
          <feColorMatrix type="matrix" values="0 0 0 0 0.345098 0 0 0 0 0.776471 0 0 0 0 0.698039 0 0 0 0.5 0"></feColorMatrix>
          <feBlend mode="normal" in2="BackgroundImageFix" result="effect1_dropShadow_2715_1984"></feBlend>
          <feBlend mode="normal" in="SourceGraphic" in2="effect1_dropShadow_2715_1984" result="shape"></feBlend>
          </filter>
          <filter id="filter1_d_2715_1984" x="347" y="175" width="50" height="73" filterUnits="userSpaceOnUse" color-interpolation-filters="sRGB">
          <feFlood flood-opacity="0" result="BackgroundImageFix"></feFlood>
          <feColorMatrix in="SourceAlpha" type="matrix" values="0 0 0 0 0 0 0 0 0 0 0 0 0 0 0 0 0 0 127 0" result="hardAlpha"></feColorMatrix>
          <feOffset dx="2" dy="2"></feOffset>
          <feGaussianBlur stdDeviation="5"></feGaussianBlur>
          <feColorMatrix type="matrix" values="0 0 0 0 0.345098 0 0 0 0 0.776471 0 0 0 0 0.698039 0 0 0 0.5 0"></feColorMatrix>
          <feBlend mode="normal" in2="BackgroundImageFix" result="effect1_dropShadow_2715_1984"></feBlend>
          <feBlend mode="normal" in="SourceGraphic" in2="effect1_dropShadow_2715_1984" result="shape"></feBlend>
          </filter>
          <filter id="filter2_d_2715_1984" x="222" y="175" width="50" height="73" filterUnits="userSpaceOnUse" color-interpolation-filters="sRGB">
          <feFlood flood-opacity="0" result="BackgroundImageFix"></feFlood>
          <feColorMatrix in="SourceAlpha" type="matrix" values="0 0 0 0 0 0 0 0 0 0 0 0 0 0 0 0 0 0 127 0" result="hardAlpha"></feColorMatrix>
          <feOffset dx="2" dy="2"></feOffset>
          <feGaussianBlur stdDeviation="5"></feGaussianBlur>
          <feColorMatrix type="matrix" values="0 0 0 0 0.345098 0 0 0 0 0.776471 0 0 0 0 0.698039 0 0 0 0.5 0"></feColorMatrix>
          <feBlend mode="normal" in2="BackgroundImageFix" result="effect1_dropShadow_2715_1984"></feBlend>
          <feBlend mode="normal" in="SourceGraphic" in2="effect1_dropShadow_2715_1984" result="shape"></feBlend>
          </filter>
          <linearGradient id="paint0_linear_2715_1984" x1="305.5" y1="0" x2="305.5" y2="418" gradientUnits="userSpaceOnUse">
          <stop stop-color="#58C6B2"></stop>
          <stop offset="1" stop-color="#131D1C"></stop>
          </linearGradient>
          <linearGradient id="paint1_linear_2715_1984" x1="319.934" y1="101.582" x2="319.289" y2="79.2989" gradientUnits="userSpaceOnUse">
          <stop stop-color="white"></stop>
          <stop offset="1" stop-color="white" stop-opacity="0.2"></stop>
          </linearGradient>
          <linearGradient id="paint2_linear_2715_1984" x1="357.127" y1="230.176" x2="390.549" y2="229.162" gradientUnits="userSpaceOnUse">
          <stop stop-color="white"></stop>
          <stop offset="1" stop-color="white" stop-opacity="0.2"></stop>
          </linearGradient>
          <linearGradient id="paint3_linear_2715_1984" x1="257.873" y1="188.824" x2="224.451" y2="189.838" gradientUnits="userSpaceOnUse">
          <stop stop-color="white"></stop>
          <stop offset="1" stop-color="white" stop-opacity="0.2"></stop>
          </linearGradient>
          </defs>
        </svg>
