<?xml version="1.0" encoding="utf-8"?>
<!-- Generator: Adobe Illustrator 25.4.1, SVG Export Plug-In . SVG Version: 6.00 Build 0)  -->
<svg version="1.1" id="Calque_1" xmlns="http://www.w3.org/2000/svg" xmlns:xlink="http://www.w3.org/1999/xlink" x="0px" y="0px"
	 viewBox="0 0 130 29" style="enable-background:new 0 0 130 29;" xml:space="preserve">
<style type="text/css">
	.st0{fill:#000000;}
</style>
<path class="st0" d="M5.68,29H0L6.41,0h5.69L9.48,11.89h1.03L20.23,0h6.6v0.5L15.38,14.25V15l7.23,13.75V29h-6.28l-6.24-11.89H8.28
	L5.68,29z M63.72,0.5L49.23,22.09L47.71,29h-5.69l1.59-7.33L38.22,0h6.03l3.27,13.84h0.78L57.52,0h6.2V0.5z M72.69,0h5.77
	l0.98,26.27h0.78L91.78,0h5.95v0.5L84.74,29H74.15L72.69,0z M105.85,28.5L112.14,0H130v5.22h-13.35l-1.43,6.63h11.67v5.22h-12.86
	l-1.49,6.71h12.72V29h-19.42V28.5z"/>
</svg>